<svg xmlns="http://www.w3.org/2000/svg" width="600" height="600" viewBox="0 0 600 600" fill="currentColor">
<g>
<path d="M 273.46 507.65 C273.42,487.49 273.17,484.36 270.72,472.85 C261.73,430.61 247.00,407.53 208.00,374.59 C182.00,352.62 167.89,338.09 152.81,317.74 C136.16,295.27 127.13,267.91 128.29,243.50 C130.01,207.38 149.52,174.37 187.06,144.07 C216.46,120.35 245.78,103.43 283.00,88.70 C302.30,81.07 336.12,68.78 336.57,69.24 C336.75,69.41 336.06,72.71 335.04,76.58 C330.92,92.31 329.66,121.02 332.51,134.49 C337.49,157.97 349.76,180.73 370.28,204.50 C375.50,210.55 392.56,228.10 408.18,243.50 C439.26,274.13 448.06,284.65 456.66,301.50 C474.63,336.68 474.35,371.14 455.83,404.78 C432.39,447.37 372.84,490.32 294.00,521.50 C283.27,525.74 274.27,529.35 274.00,529.51 C273.73,529.67 273.48,519.84 273.46,507.65 ZM 334.38 459.39 C344.35,454.10 356.15,447.37 360.61,444.42 C369.09,438.81 379.43,430.10 378.59,429.25 C377.77,428.44 284.53,393.20 284.14,393.56 C283.94,393.74 287.19,400.78 291.36,409.20 C299.43,425.49 305.34,441.53 308.95,457.00 C311.28,466.96 312.27,469.00 314.75,469.00 C315.58,469.00 324.41,464.67 334.38,459.39 ZM 421.25 380.15 C424.53,374.46 426.82,369.43 426.35,368.98 C425.88,368.52 411.33,363.35 394.00,357.49 C313.84,330.35 265.45,309.36 182.50,265.77 C174.80,261.73 168.34,258.81 168.14,259.28 C167.53,260.76 172.02,273.03 176.72,282.74 C183.28,296.30 185.94,298.34 217.30,313.86 C287.46,348.57 306.55,356.62 374.00,379.94 C399.07,388.60 406.50,390.79 410.40,390.66 L 415.30 390.50 L 421.25 380.15 ZM 419.60 318.76 C418.38,312.66 406.82,295.86 397.24,286.28 C391.46,280.50 385.62,277.25 368.70,270.36 C362.54,267.86 352.33,263.55 346.00,260.79 C289.95,236.36 279.83,231.31 226.78,201.30 C197.61,184.79 198.59,184.93 189.23,196.00 C181.13,205.58 177.66,211.35 178.47,213.89 C179.34,216.63 198.85,229.04 227.06,244.78 C256.11,260.99 292.29,277.53 327.50,290.67 C359.80,302.74 415.52,321.70 419.38,321.94 C419.86,321.98 419.96,320.54 419.60,318.76 ZM 318.00 202.30 C318.00,201.92 315.13,195.51 311.62,188.05 C303.58,171.00 298.65,157.80 294.81,143.05 C291.63,130.85 290.75,129.00 288.13,129.01 C285.67,129.02 253.01,145.24 245.27,150.30 C241.55,152.73 237.46,155.85 236.18,157.24 L 233.87 159.77 L 247.87 167.89 C262.61,176.44 314.61,202.92 316.75,202.97 C317.44,202.99 318.00,202.69 318.00,202.30 Z"/>
</g>
</svg>